<svg width="59" height="30" viewBox="0 0 59 30" fill="none" xmlns="http://www.w3.org/2000/svg">
<path d="M2.33088 0.263926C1.52288 0.0809263 0.719874 0.587915 0.536874 1.39591C0.353874 2.20391 0.860893 3.00692 1.66889 3.18992L2.33088 0.263926ZM57.5409 27.1039C58.3549 26.9489 58.8879 26.1629 58.7329 25.3489L56.2009 12.0889C56.0449 11.2749 55.2589 10.7419 54.4459 10.8969C53.6319 11.0529 53.0979 11.8379 53.2539 12.6519L55.5049 24.4389L43.7179 26.6899C42.9039 26.8449 42.3709 27.6309 42.5259 28.4449C42.6809 29.2579 43.4669 29.7919 44.2809 29.6369L57.5409 27.1039ZM1.66889 3.18992L16.9489 6.65092L17.6109 3.72492L2.33088 0.263926L1.66889 3.18992ZM43.8409 18.3289L56.4169 26.8719L58.1029 24.3899L45.5269 15.8469L43.8409 18.3289ZM16.9489 6.65092C26.5639 8.82792 35.6859 12.7889 43.8409 18.3289L45.5269 15.8469C37.0609 10.0969 27.5919 5.98492 17.6109 3.72492L16.9489 6.65092Z" fill="#3D5B2B"/>
</svg>
