<svg width="57" height="39" viewBox="0 0 57 39" fill="none" xmlns="http://www.w3.org/2000/svg">
<path d="M0.867083 35.982C0.228083 36.509 0.136073 37.454 0.663073 38.094C1.19007 38.733 2.13507 38.825 2.77507 38.298L0.867083 35.982ZM55.8971 8.776C56.2731 8.038 55.9791 7.135 55.2401 6.759L43.2071 0.639995C42.4681 0.263995 41.5651 0.558993 41.1901 1.29699C40.8141 2.03599 41.1081 2.93899 41.8471 3.31399L52.5431 8.753L47.1041 19.45C46.7291 20.188 47.0231 21.091 47.7611 21.467C48.5001 21.842 49.4031 21.548 49.7781 20.81L55.8971 8.776ZM2.77507 38.298L14.8681 28.338L12.9611 26.023L0.867083 35.982L2.77507 38.298ZM40.5701 14.232L55.0251 9.522L54.0961 6.66999L39.6401 11.38L40.5701 14.232ZM14.8681 28.338C22.4781 22.071 31.1961 17.286 40.5701 14.232L39.6401 11.38C29.9101 14.55 20.8601 19.517 12.9611 26.023L14.8681 28.338Z" fill="#3D5B2B"/>
</svg>
