<?xml version="1.0" encoding="UTF-8" standalone="no"?>
<!DOCTYPE svg PUBLIC "-//W3C//DTD SVG 1.1//EN" "http://www.w3.org/Graphics/SVG/1.1/DTD/svg11.dtd">
<svg xmlns="http://www.w3.org/2000/svg" version="1.1" viewBox="0.00 0.00 249.00 133.00">
<g stroke-width="2.00" fill="none" stroke-linecap="butt">
<path stroke="#97a882" vector-effect="non-scaling-stroke" d="
  M 224.8337 19.5350
  A 18.01 18.01 0.0 0 0 205.5822 2.8588
  L 19.0807 16.2274
  A 18.01 18.01 0.0 0 0 2.4044 35.4790
  L 7.2663 103.3050
  A 18.01 18.01 0.0 0 0 26.5178 119.9812
  L 213.0193 106.6126
  A 18.01 18.01 0.0 0 0 229.6956 87.3610
  L 224.8337 19.5350"
/>
<path stroke="#97a882" vector-effect="non-scaling-stroke" d="
  M 51.00 120.60
  Q 50.94 120.61 50.91 120.64
  Q 50.87 120.70 50.87 120.62
  Q 50.87 120.62 50.87 120.62
  Q 50.88 120.56 50.94 120.56
  C 54.48 120.81 57.96 120.33 61.55 120.29
  Q 138.05 119.57 215.14 119.02
  Q 222.93 118.96 226.14 117.63
  Q 233.53 114.57 236.35 107.08
  Q 237.62 103.69 237.51 97.46
  Q 237.01 68.68 236.97 37.20
  Q 236.96 30.41 235.89 27.09
  Q 233.79 20.64 227.32 16.94
  Q 226.63 16.54 226.69 17.34
  Q 228.99 50.55 231.45 83.55
  Q 232.00 91.03 230.92 94.36
  Q 228.07 103.12 220.02 106.90
  Q 216.76 108.43 210.31 108.88
  Q 138.58 113.99 60.37 119.43
  Q 55.29 119.79 51.00 120.60"
/>
<path stroke="#97a882" vector-effect="non-scaling-stroke" d="
  M 239.62 29.89
  Q 238.03 28.65 238.65 30.57
  Q 238.88 31.28 238.88 32.05
  Q 239.03 65.01 239.49 96.90
  Q 239.58 103.22 238.60 106.64
  C 236.30 114.70 228.44 120.79 220.25 120.87
  Q 126.40 121.75 32.29 122.52
  C 31.43 122.53 30.63 122.37 29.79 122.33
  Q 28.93 122.29 29.64 122.78
  Q 34.68 126.33 40.23 126.44
  Q 132.43 128.23 226.04 130.26
  C 234.10 130.44 240.71 126.64 244.01 119.26
  Q 245.45 116.04 245.54 108.66
  Q 245.89 81.16 246.69 52.87
  Q 246.95 43.63 246.54 41.20
  Q 245.39 34.35 239.62 29.89"
/>
</g>
<path fill="#3d5b2b" d="
  M 238.43 26.70
  Q 247.67 32.33 248.56 41.97
  Q 248.93 45.91 248.77 51.21
  Q 247.91 79.86 247.51 109.38
  Q 247.44 115.28 246.43 118.48
  C 243.71 127.13 235.47 132.44 226.38 132.25
  Q 133.21 130.27 40.70 128.39
  C 35.15 128.28 30.15 126.41 26.32 122.44
  A 1.47 1.46 69.3 0 0 25.35 122.00
  C 17.21 121.67 11.04 118.00 7.17 110.62
  Q 5.40 107.27 4.94 99.93
  Q 2.94 68.54 0.63 39.87
  Q 0.09 33.17 1.03 29.20
  C 3.19 20.07 11.07 14.73 20.13 14.10
  Q 111.55 7.69 202.71 1.13
  Q 209.45 0.65 212.53 1.66
  Q 221.83 4.72 225.40 13.37
  Q 225.67 14.03 226.32 14.32
  Q 234.19 17.76 237.56 25.70
  Q 237.83 26.34 238.43 26.70
  Z
  M 224.8337 19.5350
  A 18.01 18.01 0.0 0 0 205.5822 2.8588
  L 19.0807 16.2274
  A 18.01 18.01 0.0 0 0 2.4044 35.4790
  L 7.2663 103.3050
  A 18.01 18.01 0.0 0 0 26.5178 119.9812
  L 213.0193 106.6126
  A 18.01 18.01 0.0 0 0 229.6956 87.3610
  L 224.8337 19.5350
  Z
  M 51.00 120.60
  Q 50.94 120.61 50.91 120.64
  Q 50.87 120.70 50.87 120.62
  Q 50.87 120.62 50.87 120.62
  Q 50.88 120.56 50.94 120.56
  C 54.48 120.81 57.96 120.33 61.55 120.29
  Q 138.05 119.57 215.14 119.02
  Q 222.93 118.96 226.14 117.63
  Q 233.53 114.57 236.35 107.08
  Q 237.62 103.69 237.51 97.46
  Q 237.01 68.68 236.97 37.20
  Q 236.96 30.41 235.89 27.09
  Q 233.79 20.64 227.32 16.94
  Q 226.63 16.54 226.69 17.34
  Q 228.99 50.55 231.45 83.55
  Q 232.00 91.03 230.92 94.36
  Q 228.07 103.12 220.02 106.90
  Q 216.76 108.43 210.31 108.88
  Q 138.58 113.99 60.37 119.43
  Q 55.29 119.79 51.00 120.60
  Z
  M 239.62 29.89
  Q 238.03 28.65 238.65 30.57
  Q 238.88 31.28 238.88 32.05
  Q 239.03 65.01 239.49 96.90
  Q 239.58 103.22 238.60 106.64
  C 236.30 114.70 228.44 120.79 220.25 120.87
  Q 126.40 121.75 32.29 122.52
  C 31.43 122.53 30.63 122.37 29.79 122.33
  Q 28.93 122.29 29.64 122.78
  Q 34.68 126.33 40.23 126.44
  Q 132.43 128.23 226.04 130.26
  C 234.10 130.44 240.71 126.64 244.01 119.26
  Q 245.45 116.04 245.54 108.66
  Q 245.89 81.16 246.69 52.87
  Q 246.95 43.63 246.54 41.20
  Q 245.39 34.35 239.62 29.89
  Z"
/>
<rect fill="#f1f4d9" x="-111.50" y="-52.01" transform="translate(116.05,61.42) rotate(-4.1)" width="223.00" height="104.02" rx="18.01"/>
<path fill="#f1f4d9" d="
  M 51.00 120.60
  Q 55.29 119.79 60.37 119.43
  Q 138.58 113.99 210.31 108.88
  Q 216.76 108.43 220.02 106.90
  Q 228.07 103.12 230.92 94.36
  Q 232.00 91.03 231.45 83.55
  Q 228.99 50.55 226.69 17.34
  Q 226.63 16.54 227.32 16.94
  Q 233.79 20.64 235.89 27.09
  Q 236.96 30.41 236.97 37.20
  Q 237.01 68.68 237.51 97.46
  Q 237.62 103.69 236.35 107.08
  Q 233.53 114.57 226.14 117.63
  Q 222.93 118.96 215.14 119.02
  Q 138.05 119.57 61.55 120.29
  C 57.96 120.33 54.48 120.81 50.94 120.56
  Q 50.88 120.56 50.87 120.62
  Q 50.87 120.62 50.87 120.62
  Q 50.87 120.70 50.91 120.64
  Q 50.94 120.61 51.00 120.60
  Z"
/>
<path fill="#f1f4d9" d="
  M 239.62 29.89
  Q 245.39 34.35 246.54 41.20
  Q 246.95 43.63 246.69 52.87
  Q 245.89 81.16 245.54 108.66
  Q 245.45 116.04 244.01 119.26
  C 240.71 126.64 234.10 130.44 226.04 130.26
  Q 132.43 128.23 40.23 126.44
  Q 34.68 126.33 29.64 122.78
  Q 28.93 122.29 29.79 122.33
  C 30.63 122.37 31.43 122.53 32.29 122.52
  Q 126.40 121.75 220.25 120.87
  C 228.44 120.79 236.30 114.70 238.60 106.64
  Q 239.58 103.22 239.49 96.90
  Q 239.03 65.01 238.88 32.05
  Q 238.88 31.28 238.65 30.57
  Q 238.03 28.65 239.62 29.89
  Z"
/>
</svg>
