<?xml version="1.0" encoding="UTF-8" standalone="no"?>
<!DOCTYPE svg PUBLIC "-//W3C//DTD SVG 1.1//EN" "http://www.w3.org/Graphics/SVG/1.1/DTD/svg11.dtd">
<svg xmlns="http://www.w3.org/2000/svg" version="1.1" viewBox="0.00 0.00 253.00 136.00">
<g stroke-width="2.00" fill="none" stroke-linecap="butt">
<path stroke="#97a782" vector-effect="non-scaling-stroke" d="
  M 13.25 3.78
  C 6.55 6.61 1.96 13.03 1.98 20.35
  Q 2.07 54.25 1.93 86.40
  C 1.90 93.84 4.27 99.90 10.50 103.83
  A 0.25 0.25 0.0 0 0 10.88 103.60
  Q 9.71 73.93 8.61 44.51
  Q 8.17 32.89 8.47 31.01
  C 9.84 22.31 17.48 14.61 26.70 14.25
  Q 120.79 10.61 215.58 7.01
  C 216.56 6.97 217.61 7.26 218.61 7.36
  Q 219.55 7.45 218.82 6.85
  Q 213.43 2.46 206.89 2.47
  Q 117.09 2.58 23.07 2.42
  Q 16.49 2.41 13.25 3.78"
/>
<path stroke="#97a782" vector-effect="non-scaling-stroke" d="
  M 21.41 48.04
  C 20.90 40.25 25.78 32.42 32.70 29.21
  Q 36.03 27.67 42.03 27.26
  Q 136.66 20.79 227.21 14.66
  Q 228.21 14.59 227.47 13.92
  C 223.95 10.69 219.41 8.85 214.69 9.03
  Q 118.06 12.72 27.94 16.15
  C 17.89 16.54 9.75 24.69 10.19 34.84
  Q 11.43 63.47 12.45 94.95
  Q 12.76 104.66 13.82 107.81
  Q 16.20 114.89 24.72 119.28
  Q 26.26 120.08 26.14 118.34
  Q 23.74 83.86 21.41 48.04"
/>
<path stroke="#97a782" vector-effect="non-scaling-stroke" d="
  M 245.8713 33.4043
  A 18.04 18.04 0.0 0 0 226.6461 16.6331
  L 40.1390 29.3478
  A 18.04 18.04 0.0 0 0 23.3677 48.5731
  L 27.9887 116.3557
  A 18.04 18.04 0.0 0 0 47.2139 133.1269
  L 233.7210 120.4122
  A 18.04 18.04 0.0 0 0 250.4923 101.1869
  L 245.8713 33.4043"
/>
</g>
<path fill="#3c5a2a" d="
  M 0.00 90.39
  L 0.00 18.44
  Q 2.19 5.88 12.98 1.84
  Q 16.66 0.47 22.59 0.47
  Q 115.56 0.53 207.22 0.50
  Q 215.74 0.50 221.93 7.28
  Q 223.30 8.79 224.86 9.63
  Q 228.30 11.49 230.57 14.40
  Q 230.92 14.83 231.46 14.95
  C 241.98 17.24 247.43 24.86 248.06 35.21
  Q 249.91 65.60 252.24 96.65
  Q 252.80 104.09 251.83 107.58
  C 249.11 117.35 241.53 122.02 231.81 122.65
  Q 143.80 128.37 50.28 134.92
  Q 43.80 135.38 40.17 134.25
  Q 31.17 131.47 27.25 122.32
  Q 27.05 121.85 26.55 121.72
  Q 14.97 118.74 11.39 107.04
  Q 11.24 106.53 10.77 106.28
  Q 1.56 101.17 0.00 90.39
  Z
  M 13.25 3.78
  C 6.55 6.61 1.96 13.03 1.98 20.35
  Q 2.07 54.25 1.93 86.40
  C 1.90 93.84 4.27 99.90 10.50 103.83
  A 0.25 0.25 0.0 0 0 10.88 103.60
  Q 9.71 73.93 8.61 44.51
  Q 8.17 32.89 8.47 31.01
  C 9.84 22.31 17.48 14.61 26.70 14.25
  Q 120.79 10.61 215.58 7.01
  C 216.56 6.97 217.61 7.26 218.61 7.36
  Q 219.55 7.45 218.82 6.85
  Q 213.43 2.46 206.89 2.47
  Q 117.09 2.58 23.07 2.42
  Q 16.49 2.41 13.25 3.78
  Z
  M 21.41 48.04
  C 20.90 40.25 25.78 32.42 32.70 29.21
  Q 36.03 27.67 42.03 27.26
  Q 136.66 20.79 227.21 14.66
  Q 228.21 14.59 227.47 13.92
  C 223.95 10.69 219.41 8.85 214.69 9.03
  Q 118.06 12.72 27.94 16.15
  C 17.89 16.54 9.75 24.69 10.19 34.84
  Q 11.43 63.47 12.45 94.95
  Q 12.76 104.66 13.82 107.81
  Q 16.20 114.89 24.72 119.28
  Q 26.26 120.08 26.14 118.34
  Q 23.74 83.86 21.41 48.04
  Z
  M 245.8713 33.4043
  A 18.04 18.04 0.0 0 0 226.6461 16.6331
  L 40.1390 29.3478
  A 18.04 18.04 0.0 0 0 23.3677 48.5731
  L 27.9887 116.3557
  A 18.04 18.04 0.0 0 0 47.2139 133.1269
  L 233.7210 120.4122
  A 18.04 18.04 0.0 0 0 250.4923 101.1869
  L 245.8713 33.4043
  Z"
/>
<path fill="#f1f4d9" d="
  M 1.98 20.35
  C 1.96 13.03 6.55 6.61 13.25 3.78
  Q 16.49 2.41 23.07 2.42
  Q 117.09 2.58 206.89 2.47
  Q 213.43 2.46 218.82 6.85
  Q 219.55 7.45 218.61 7.36
  C 217.61 7.26 216.56 6.97 215.58 7.01
  Q 120.79 10.61 26.70 14.25
  C 17.48 14.61 9.84 22.31 8.47 31.01
  Q 8.17 32.89 8.61 44.51
  Q 9.71 73.93 10.88 103.60
  A 0.25 0.25 0.0 0 1 10.50 103.83
  C 4.27 99.90 1.90 93.84 1.93 86.40
  Q 2.07 54.25 1.98 20.35
  Z"
/>
<path fill="#f1f4d9" d="
  M 32.70 29.21
  C 25.78 32.42 20.90 40.25 21.41 48.04
  Q 23.74 83.86 26.14 118.34
  Q 26.26 120.08 24.72 119.28
  Q 16.20 114.89 13.82 107.81
  Q 12.76 104.66 12.45 94.95
  Q 11.43 63.47 10.19 34.84
  C 9.75 24.69 17.89 16.54 27.94 16.15
  Q 118.06 12.72 214.69 9.03
  C 219.41 8.85 223.95 10.69 227.47 13.92
  Q 228.21 14.59 227.21 14.66
  Q 136.66 20.79 42.03 27.26
  Q 36.03 27.67 32.70 29.21
  Z"
/>
<rect fill="#f1f4d9" x="-111.51" y="-52.01" transform="translate(136.93,74.88) rotate(-3.9)" width="223.02" height="104.02" rx="18.04"/>
</svg>
