<?xml version="1.0" encoding="UTF-8" standalone="no"?>
<!DOCTYPE svg PUBLIC "-//W3C//DTD SVG 1.1//EN" "http://www.w3.org/Graphics/SVG/1.1/DTD/svg11.dtd">
<svg xmlns="http://www.w3.org/2000/svg" version="1.1" viewBox="0.00 0.00 241.00 209.00">
<g stroke-width="2.00" fill="none" stroke-linecap="butt">
<path stroke="#b0edfd" vector-effect="non-scaling-stroke" d="
  M 69.64 0.00
  C 57.07 2.09 50.71 12.18 48.73 24.23
  C 46.64 36.91 48.65 51.44 51.98 64.58
  A 0.60 0.60 0.0 0 1 51.56 65.31
  C 42.57 67.78 33.60 71.21 25.42 75.64
  C 11.94 82.92 -1.31 95.29 3.92 111.47
  C 9.64 129.20 34.89 139.10 51.47 143.66
  Q 52.06 143.82 51.92 144.42
  C 47.73 162.21 42.89 189.83 58.44 204.08
  Q 62.45 207.75 69.52 209.00"
/>
<path stroke="#b0edfd" vector-effect="non-scaling-stroke" d="
  M 77.79 0.00
  Q 90.11 2.39 101.00 9.79
  Q 111.60 16.98 120.23 25.38
  Q 120.59 25.73 120.94 25.37
  Q 134.20 11.99 149.54 4.29
  Q 155.31 1.39 163.37 0.00"
/>
<path stroke="#b0edfd" vector-effect="non-scaling-stroke" d="
  M 171.32 0.00
  C 199.51 4.87 194.05 45.05 189.06 64.36
  A 0.85 0.85 0.0 0 0 189.66 65.40
  C 207.55 70.23 240.48 83.55 238.15 106.57
  C 236.04 127.46 206.63 138.96 189.52 143.66
  Q 189.04 143.80 189.14 144.29
  Q 190.14 149.19 191.16 154.05
  Q 194.44 169.72 192.13 185.48
  C 190.43 196.99 183.48 206.96 171.41 209.00"
/>
<path stroke="#b0edfd" vector-effect="non-scaling-stroke" d="
  M 163.01 209.00
  Q 153.96 207.23 147.04 203.44
  Q 133.73 196.15 120.87 183.62
  Q 120.51 183.26 120.14 183.62
  C 108.49 195.04 94.20 205.89 77.89 209.00"
/>
<path stroke="#b0edfd" vector-effect="non-scaling-stroke" d="
  M 85.67 12.93
  C 76.69 8.77 65.68 7.63 60.95 18.47
  Q 58.58 23.89 58.21 30.65
  Q 57.43 44.58 61.84 61.98
  Q 62.00 62.62 62.65 62.48
  Q 77.79 59.17 92.57 57.83
  Q 93.45 57.75 93.95 57.03
  Q 102.77 44.51 113.04 33.44
  A 0.54 0.53 43.8 0 0 113.02 32.69
  C 104.86 24.81 96.03 17.73 85.67 12.93"
/>
<path stroke="#b0edfd" vector-effect="non-scaling-stroke" d="
  M 180.27 19.00
  C 173.12 1.84 152.74 13.08 142.92 20.13
  Q 135.13 25.72 128.05 32.67
  Q 127.64 33.07 128.03 33.49
  Q 138.41 44.72 146.97 56.92
  Q 147.54 57.73 148.52 57.83
  Q 163.54 59.28 178.49 62.49
  A 0.50 0.49 -76.5 0 0 179.07 62.13
  Q 183.66 44.88 182.77 30.19
  Q 182.40 24.12 180.27 19.00"
/>
<path stroke="#b0edfd" vector-effect="non-scaling-stroke" d="
  M 107.11 56.08
  A 0.33 0.33 0.0 0 0 107.37 56.62
  L 133.63 56.62
  A 0.33 0.33 0.0 0 0 133.89 56.08
  L 120.75 40.39
  A 0.33 0.33 0.0 0 0 120.25 40.39
  L 107.11 56.08"
/>
<path stroke="#b0edfd" vector-effect="non-scaling-stroke" d="
  M 98.47 68.37
  C 90.97 79.63 83.54 91.70 77.92 104.11
  A 1.17 1.14 44.4 0 0 77.94 105.11
  Q 87.30 124.16 98.49 140.61
  Q 99.17 141.61 100.40 141.68
  Q 121.35 142.87 140.71 141.65
  A 2.45 2.45 0.0 0 0 142.58 140.57
  Q 154.42 122.97 163.13 104.95
  Q 163.36 104.48 163.13 104.00
  Q 153.92 85.21 142.54 68.39
  A 2.49 2.49 0.0 0 0 140.62 67.30
  Q 118.45 66.13 100.18 67.38
  Q 99.08 67.45 98.47 68.37"
/>
<path stroke="#b0edfd" vector-effect="non-scaling-stroke" d="
  M 71.77 91.77
  A 0.32 0.32 0.0 0 0 72.34 91.82
  L 85.39 69.22
  A 0.32 0.32 0.0 0 0 85.06 68.74
  L 64.92 72.18
  A 0.32 0.32 0.0 0 0 64.67 72.61
  L 71.77 91.77"
/>
<path stroke="#b0edfd" vector-effect="non-scaling-stroke" d="
  M 155.91 68.74
  A 0.31 0.31 0.0 0 0 155.59 69.20
  L 168.66 91.83
  A 0.31 0.31 0.0 0 0 169.22 91.78
  L 176.35 72.58
  A 0.31 0.31 0.0 0 0 176.11 72.16
  L 155.91 68.74"
/>
<path stroke="#b0edfd" vector-effect="non-scaling-stroke" d="
  M 55.01 133.57
  C 58.10 123.94 61.68 114.78 65.86 105.62
  Q 66.38 104.49 65.84 103.33
  Q 59.61 89.73 54.99 75.38
  A 0.45 0.44 -16.5 0 0 54.45 75.09
  Q 39.57 79.13 27.90 85.92
  C 23.61 88.42 19.33 91.75 16.29 95.72
  C 6.08 109.06 22.11 120.42 32.27 125.48
  Q 43.06 130.86 54.39 133.91
  A 0.51 0.51 0.0 0 0 55.01 133.57"
/>
<path stroke="#b0edfd" vector-effect="non-scaling-stroke" d="
  M 185.98 75.45
  C 182.78 85.51 178.84 94.71 174.89 104.15
  Q 174.68 104.65 174.91 105.15
  Q 181.42 119.20 185.97 133.55
  A 0.53 0.52 -16.2 0 0 186.61 133.89
  Q 201.39 129.91 212.99 123.14
  C 223.74 116.88 234.77 105.47 222.62 93.29
  C 213.48 84.13 198.93 78.40 186.65 75.08
  A 0.56 0.56 0.0 0 0 185.98 75.45"
/>
<path stroke="#b0edfd" vector-effect="non-scaling-stroke" d="
  M 85.12 140.28
  A 0.31 0.31 0.0 0 0 85.44 139.82
  L 72.34 117.12
  A 0.31 0.31 0.0 0 0 71.78 117.17
  L 64.68 136.40
  A 0.31 0.31 0.0 0 0 64.92 136.81
  L 85.12 140.28"
/>
<path stroke="#b0edfd" vector-effect="non-scaling-stroke" d="
  M 169.29 117.23
  A 0.34 0.34 0.0 0 0 168.67 117.17
  L 155.64 139.75
  A 0.34 0.34 0.0 0 0 155.99 140.26
  L 176.08 136.80
  A 0.34 0.34 0.0 0 0 176.34 136.35
  L 169.29 117.23"
/>
<path stroke="#b0edfd" vector-effect="non-scaling-stroke" d="
  M 58.32 167.38
  C 57.11 180.69 58.79 203.59 79.17 198.32
  Q 85.38 196.71 91.15 193.30
  Q 102.81 186.41 113.11 176.18
  A 0.37 0.36 46.8 0 0 113.12 175.68
  Q 102.23 163.83 93.77 151.68
  A 1.15 1.13 -14.4 0 0 92.94 151.20
  Q 78.16 149.88 62.53 146.50
  Q 61.97 146.38 61.83 146.93
  Q 59.26 157.01 58.32 167.38"
/>
<path stroke="#b0edfd" vector-effect="non-scaling-stroke" d="
  M 165.31 198.93
  C 178.16 200.54 182.31 188.45 182.80 178.24
  Q 183.50 163.58 179.13 147.00
  Q 178.97 146.40 178.36 146.53
  Q 162.74 149.88 148.60 151.17
  A 2.21 2.20 -74.9 0 0 146.99 152.10
  Q 138.29 164.36 128.14 175.40
  A 0.79 0.78 -46.9 0 0 128.17 176.50
  C 138.33 186.27 151.85 197.23 165.31 198.93"
/>
<path stroke="#b0edfd" vector-effect="non-scaling-stroke" d="
  M 133.90 152.87
  A 0.31 0.31 0.0 0 0 133.67 152.36
  L 107.36 152.37
  A 0.31 0.31 0.0 0 0 107.13 152.88
  L 120.27 168.59
  A 0.31 0.31 0.0 0 0 120.75 168.59
  L 133.90 152.87"
/>
<path stroke="#b0edfd" vector-effect="non-scaling-stroke" d="
  M 141.45 104.51
  A 20.95 20.95 0.0 0 0 120.50 83.56
  A 20.95 20.95 0.0 0 0 99.55 104.51
  A 20.95 20.95 0.0 0 0 120.50 125.46
  A 20.95 20.95 0.0 0 0 141.45 104.51"
/>
</g>
<path fill="#ffffff" d="
  M 0.00 0.00
  L 69.64 0.00
  C 57.07 2.09 50.71 12.18 48.73 24.23
  C 46.64 36.91 48.65 51.44 51.98 64.58
  A 0.60 0.60 0.0 0 1 51.56 65.31
  C 42.57 67.78 33.60 71.21 25.42 75.64
  C 11.94 82.92 -1.31 95.29 3.92 111.47
  C 9.64 129.20 34.89 139.10 51.47 143.66
  Q 52.06 143.82 51.92 144.42
  C 47.73 162.21 42.89 189.83 58.44 204.08
  Q 62.45 207.75 69.52 209.00
  L 0.00 209.00
  L 0.00 0.00
  Z"
/>
<path fill="#61dafb" d="
  M 69.64 0.00
  L 77.79 0.00
  Q 90.11 2.39 101.00 9.79
  Q 111.60 16.98 120.23 25.38
  Q 120.59 25.73 120.94 25.37
  Q 134.20 11.99 149.54 4.29
  Q 155.31 1.39 163.37 0.00
  L 171.32 0.00
  C 199.51 4.87 194.05 45.05 189.06 64.36
  A 0.85 0.85 0.0 0 0 189.66 65.40
  C 207.55 70.23 240.48 83.55 238.15 106.57
  C 236.04 127.46 206.63 138.96 189.52 143.66
  Q 189.04 143.80 189.14 144.29
  Q 190.14 149.19 191.16 154.05
  Q 194.44 169.72 192.13 185.48
  C 190.43 196.99 183.48 206.96 171.41 209.00
  L 163.01 209.00
  Q 153.96 207.23 147.04 203.44
  Q 133.73 196.15 120.87 183.62
  Q 120.51 183.26 120.14 183.62
  C 108.49 195.04 94.20 205.89 77.89 209.00
  L 69.52 209.00
  Q 62.45 207.75 58.44 204.08
  C 42.89 189.83 47.73 162.21 51.92 144.42
  Q 52.06 143.82 51.47 143.66
  C 34.89 139.10 9.64 129.20 3.92 111.47
  C -1.31 95.29 11.94 82.92 25.42 75.64
  C 33.60 71.21 42.57 67.78 51.56 65.31
  A 0.60 0.60 0.0 0 0 51.98 64.58
  C 48.65 51.44 46.64 36.91 48.73 24.23
  C 50.71 12.18 57.07 2.09 69.64 0.00
  Z
  M 85.67 12.93
  C 76.69 8.77 65.68 7.63 60.95 18.47
  Q 58.58 23.89 58.21 30.65
  Q 57.43 44.58 61.84 61.98
  Q 62.00 62.62 62.65 62.48
  Q 77.79 59.17 92.57 57.83
  Q 93.45 57.75 93.95 57.03
  Q 102.77 44.51 113.04 33.44
  A 0.54 0.53 43.8 0 0 113.02 32.69
  C 104.86 24.81 96.03 17.73 85.67 12.93
  Z
  M 180.27 19.00
  C 173.12 1.84 152.74 13.08 142.92 20.13
  Q 135.13 25.72 128.05 32.67
  Q 127.64 33.07 128.03 33.49
  Q 138.41 44.72 146.97 56.92
  Q 147.54 57.73 148.52 57.83
  Q 163.54 59.28 178.49 62.49
  A 0.50 0.49 -76.5 0 0 179.07 62.13
  Q 183.66 44.88 182.77 30.19
  Q 182.40 24.12 180.27 19.00
  Z
  M 107.11 56.08
  A 0.33 0.33 0.0 0 0 107.37 56.62
  L 133.63 56.62
  A 0.33 0.33 0.0 0 0 133.89 56.08
  L 120.75 40.39
  A 0.33 0.33 0.0 0 0 120.25 40.39
  L 107.11 56.08
  Z
  M 98.47 68.37
  C 90.97 79.63 83.54 91.70 77.92 104.11
  A 1.17 1.14 44.4 0 0 77.94 105.11
  Q 87.30 124.16 98.49 140.61
  Q 99.17 141.61 100.40 141.68
  Q 121.35 142.87 140.71 141.65
  A 2.45 2.45 0.0 0 0 142.58 140.57
  Q 154.42 122.97 163.13 104.95
  Q 163.36 104.48 163.13 104.00
  Q 153.92 85.21 142.54 68.39
  A 2.49 2.49 0.0 0 0 140.62 67.30
  Q 118.45 66.13 100.18 67.38
  Q 99.08 67.45 98.47 68.37
  Z
  M 71.77 91.77
  A 0.32 0.32 0.0 0 0 72.34 91.82
  L 85.39 69.22
  A 0.32 0.32 0.0 0 0 85.06 68.74
  L 64.92 72.18
  A 0.32 0.32 0.0 0 0 64.67 72.61
  L 71.77 91.77
  Z
  M 155.91 68.74
  A 0.31 0.31 0.0 0 0 155.59 69.20
  L 168.66 91.83
  A 0.31 0.31 0.0 0 0 169.22 91.78
  L 176.35 72.58
  A 0.31 0.31 0.0 0 0 176.11 72.16
  L 155.91 68.74
  Z
  M 55.01 133.57
  C 58.10 123.94 61.68 114.78 65.86 105.62
  Q 66.38 104.49 65.84 103.33
  Q 59.61 89.73 54.99 75.38
  A 0.45 0.44 -16.5 0 0 54.45 75.09
  Q 39.57 79.13 27.90 85.92
  C 23.61 88.42 19.33 91.75 16.29 95.72
  C 6.08 109.06 22.11 120.42 32.27 125.48
  Q 43.06 130.86 54.39 133.91
  A 0.51 0.51 0.0 0 0 55.01 133.57
  Z
  M 185.98 75.45
  C 182.78 85.51 178.84 94.71 174.89 104.15
  Q 174.68 104.65 174.91 105.15
  Q 181.42 119.20 185.97 133.55
  A 0.53 0.52 -16.2 0 0 186.61 133.89
  Q 201.39 129.91 212.99 123.14
  C 223.74 116.88 234.77 105.47 222.62 93.29
  C 213.48 84.13 198.93 78.40 186.65 75.08
  A 0.56 0.56 0.0 0 0 185.98 75.45
  Z
  M 85.12 140.28
  A 0.31 0.31 0.0 0 0 85.44 139.82
  L 72.34 117.12
  A 0.31 0.31 0.0 0 0 71.78 117.17
  L 64.68 136.40
  A 0.31 0.31 0.0 0 0 64.92 136.81
  L 85.12 140.28
  Z
  M 169.29 117.23
  A 0.34 0.34 0.0 0 0 168.67 117.17
  L 155.64 139.75
  A 0.34 0.34 0.0 0 0 155.99 140.26
  L 176.08 136.80
  A 0.34 0.34 0.0 0 0 176.34 136.35
  L 169.29 117.23
  Z
  M 58.32 167.38
  C 57.11 180.69 58.79 203.59 79.17 198.32
  Q 85.38 196.71 91.15 193.30
  Q 102.81 186.41 113.11 176.18
  A 0.37 0.36 46.8 0 0 113.12 175.68
  Q 102.23 163.83 93.77 151.68
  A 1.15 1.13 -14.4 0 0 92.94 151.20
  Q 78.16 149.88 62.53 146.50
  Q 61.97 146.38 61.83 146.93
  Q 59.26 157.01 58.32 167.38
  Z
  M 165.31 198.93
  C 178.16 200.54 182.31 188.45 182.80 178.24
  Q 183.50 163.58 179.13 147.00
  Q 178.97 146.40 178.36 146.53
  Q 162.74 149.88 148.60 151.17
  A 2.21 2.20 -74.9 0 0 146.99 152.10
  Q 138.29 164.36 128.14 175.40
  A 0.79 0.78 -46.9 0 0 128.17 176.50
  C 138.33 186.27 151.85 197.23 165.31 198.93
  Z
  M 133.90 152.87
  A 0.31 0.31 0.0 0 0 133.67 152.36
  L 107.36 152.37
  A 0.31 0.31 0.0 0 0 107.13 152.88
  L 120.27 168.59
  A 0.31 0.31 0.0 0 0 120.75 168.59
  L 133.90 152.87
  Z"
/>
<path fill="#ffffff" d="
  M 77.79 0.00
  L 163.37 0.00
  Q 155.31 1.39 149.54 4.29
  Q 134.20 11.99 120.94 25.37
  Q 120.59 25.73 120.23 25.38
  Q 111.60 16.98 101.00 9.79
  Q 90.11 2.39 77.79 0.00
  Z"
/>
<path fill="#ffffff" d="
  M 171.32 0.00
  L 241.00 0.00
  L 241.00 209.00
  L 171.41 209.00
  C 183.48 206.96 190.43 196.99 192.13 185.48
  Q 194.44 169.72 191.16 154.05
  Q 190.14 149.19 189.14 144.29
  Q 189.04 143.80 189.52 143.66
  C 206.63 138.96 236.04 127.46 238.15 106.57
  C 240.48 83.55 207.55 70.23 189.66 65.40
  A 0.85 0.85 0.0 0 1 189.06 64.36
  C 194.05 45.05 199.51 4.87 171.32 0.00
  Z"
/>
<path fill="#ffffff" d="
  M 85.67 12.93
  C 96.03 17.73 104.86 24.81 113.02 32.69
  A 0.54 0.53 43.8 0 1 113.04 33.44
  Q 102.77 44.51 93.95 57.03
  Q 93.45 57.75 92.57 57.83
  Q 77.79 59.17 62.65 62.48
  Q 62.00 62.62 61.84 61.98
  Q 57.43 44.58 58.21 30.65
  Q 58.58 23.89 60.95 18.47
  C 65.68 7.63 76.69 8.77 85.67 12.93
  Z"
/>
<path fill="#ffffff" d="
  M 142.92 20.13
  C 152.74 13.08 173.12 1.84 180.27 19.00
  Q 182.40 24.12 182.77 30.19
  Q 183.66 44.88 179.07 62.13
  A 0.50 0.49 -76.5 0 1 178.49 62.49
  Q 163.54 59.28 148.52 57.83
  Q 147.54 57.73 146.97 56.92
  Q 138.41 44.72 128.03 33.49
  Q 127.64 33.07 128.05 32.67
  Q 135.13 25.72 142.92 20.13
  Z"
/>
<path fill="#ffffff" d="
  M 107.11 56.08
  L 120.25 40.39
  A 0.33 0.33 0.0 0 1 120.75 40.39
  L 133.89 56.08
  A 0.33 0.33 0.0 0 1 133.63 56.62
  L 107.37 56.62
  A 0.33 0.33 0.0 0 1 107.11 56.08
  Z"
/>
<path fill="#ffffff" d="
  M 77.92 104.11
  C 83.54 91.70 90.97 79.63 98.47 68.37
  Q 99.08 67.45 100.18 67.38
  Q 118.45 66.13 140.62 67.30
  A 2.49 2.49 0.0 0 1 142.54 68.39
  Q 153.92 85.21 163.13 104.00
  Q 163.36 104.48 163.13 104.95
  Q 154.42 122.97 142.58 140.57
  A 2.45 2.45 0.0 0 1 140.71 141.65
  Q 121.35 142.87 100.40 141.68
  Q 99.17 141.61 98.49 140.61
  Q 87.30 124.16 77.94 105.11
  A 1.17 1.14 44.4 0 1 77.92 104.11
  Z
  M 141.45 104.51
  A 20.95 20.95 0.0 0 0 120.50 83.56
  A 20.95 20.95 0.0 0 0 99.55 104.51
  A 20.95 20.95 0.0 0 0 120.50 125.46
  A 20.95 20.95 0.0 0 0 141.45 104.51
  Z"
/>
<path fill="#ffffff" d="
  M 71.77 91.77
  L 64.67 72.61
  A 0.32 0.32 0.0 0 1 64.92 72.18
  L 85.06 68.74
  A 0.32 0.32 0.0 0 1 85.39 69.22
  L 72.34 91.82
  A 0.32 0.32 0.0 0 1 71.77 91.77
  Z"
/>
<path fill="#ffffff" d="
  M 155.91 68.74
  L 176.11 72.16
  A 0.31 0.31 0.0 0 1 176.35 72.58
  L 169.22 91.78
  A 0.31 0.31 0.0 0 1 168.66 91.83
  L 155.59 69.20
  A 0.31 0.31 0.0 0 1 155.91 68.74
  Z"
/>
<path fill="#ffffff" d="
  M 65.86 105.62
  C 61.68 114.78 58.10 123.94 55.01 133.57
  A 0.51 0.51 0.0 0 1 54.39 133.91
  Q 43.06 130.86 32.27 125.48
  C 22.11 120.42 6.08 109.06 16.29 95.72
  C 19.33 91.75 23.61 88.42 27.90 85.92
  Q 39.57 79.13 54.45 75.09
  A 0.45 0.44 -16.5 0 1 54.99 75.38
  Q 59.61 89.73 65.84 103.33
  Q 66.38 104.49 65.86 105.62
  Z"
/>
<path fill="#ffffff" d="
  M 174.89 104.15
  C 178.84 94.71 182.78 85.51 185.98 75.45
  A 0.56 0.56 0.0 0 1 186.65 75.08
  C 198.93 78.40 213.48 84.13 222.62 93.29
  C 234.77 105.47 223.74 116.88 212.99 123.14
  Q 201.39 129.91 186.61 133.89
  A 0.53 0.52 -16.2 0 1 185.97 133.55
  Q 181.42 119.20 174.91 105.15
  Q 174.68 104.65 174.89 104.15
  Z"
/>
<circle fill="#61dafb" cx="120.50" cy="104.51" r="20.95"/>
<path fill="#ffffff" d="
  M 85.12 140.28
  L 64.92 136.81
  A 0.31 0.31 0.0 0 1 64.68 136.40
  L 71.78 117.17
  A 0.31 0.31 0.0 0 1 72.34 117.12
  L 85.44 139.82
  A 0.31 0.31 0.0 0 1 85.12 140.28
  Z"
/>
<path fill="#ffffff" d="
  M 169.29 117.23
  L 176.34 136.35
  A 0.34 0.34 0.0 0 1 176.08 136.80
  L 155.99 140.26
  A 0.34 0.34 0.0 0 1 155.64 139.75
  L 168.67 117.17
  A 0.34 0.34 0.0 0 1 169.29 117.23
  Z"
/>
<path fill="#ffffff" d="
  M 79.17 198.32
  C 58.79 203.59 57.11 180.69 58.32 167.38
  Q 59.26 157.01 61.83 146.93
  Q 61.97 146.38 62.53 146.50
  Q 78.16 149.88 92.94 151.20
  A 1.15 1.13 -14.4 0 1 93.77 151.68
  Q 102.23 163.83 113.12 175.68
  A 0.37 0.36 46.8 0 1 113.11 176.18
  Q 102.81 186.41 91.15 193.30
  Q 85.38 196.71 79.17 198.32
  Z"
/>
<path fill="#ffffff" d="
  M 182.80 178.24
  C 182.31 188.45 178.16 200.54 165.31 198.93
  C 151.85 197.23 138.33 186.27 128.17 176.50
  A 0.79 0.78 -46.9 0 1 128.14 175.40
  Q 138.29 164.36 146.99 152.10
  A 2.21 2.20 -74.9 0 1 148.60 151.17
  Q 162.74 149.88 178.36 146.53
  Q 178.97 146.40 179.13 147.00
  Q 183.50 163.58 182.80 178.24
  Z"
/>
<path fill="#ffffff" d="
  M 133.90 152.87
  L 120.75 168.59
  A 0.31 0.31 0.0 0 1 120.27 168.59
  L 107.13 152.88
  A 0.31 0.31 0.0 0 1 107.36 152.37
  L 133.67 152.36
  A 0.31 0.31 0.0 0 1 133.90 152.87
  Z"
/>
<path fill="#ffffff" d="
  M 163.01 209.00
  L 77.89 209.00
  C 94.20 205.89 108.49 195.04 120.14 183.62
  Q 120.51 183.26 120.87 183.62
  Q 133.73 196.15 147.04 203.44
  Q 153.96 207.23 163.01 209.00
  Z"
/>
</svg>
